# xmcd
#
# Track frame offsets:
#	150
#	14969
#	31614
#	47444
#	64924
#	84288
#	99225
#	109744
#	128995
#
# Disc length: 1912 seconds
#
# Revision: 0
# Processed by: cddbd v1.5PL3 Copyright (c) Steve Scherf et al.
# Submitted via: dBpowerAMP V4.0
#
DISCID=6a077609
DTITLE=Mystic Knights - Heart Of Steel
DYEAR=1900
DGENRE=Blues
TTITLE0=She's My Baby
TTITLE1=Over The Hill
TTITLE2=Dodge Coronet
TTITLE3=Big Bad Mama
TTITLE4=Too Blue
TTITLE5=Get Up And Go To Work
TTITLE6=Heart Of Steel
TTITLE7=Frankstown Lean
TTITLE8=Spread Yourself Around
EXTD=
EXTT0=
EXTT1=
EXTT2=
EXTT3=
EXTT4=
EXTT5=
EXTT6=
EXTT7=
EXTT8=
PLAYORDER=
